<svg xmlns="http://www.w3.org/2000/svg" viewBox="0 0 500 500"><path d="M238.4 341.53H45.31a5.72 5.72 0 0 1-5.71-5.71V64.39a5.72 5.72 0 0 1 5.71-5.66H238.4a5.71 5.71 0 0 1 5.7 5.71v271.38a5.71 5.71 0 0 1-5.7 5.71ZM45.31 58.93a5.47 5.47 0 0 0-5.46 5.46v271.43a5.47 5.47 0 0 0 5.46 5.46H238.4a5.46 5.46 0 0 0 5.45-5.46V64.39a5.46 5.46 0 0 0-5.45-5.46ZM454.7 341.53H261.6a5.71 5.71 0 0 1-5.7-5.71V64.39a5.71 5.71 0 0 1 5.7-5.66h193.1a5.71 5.71 0 0 1 5.7 5.66v271.43a5.71 5.71 0 0 1-5.7 5.71ZM261.6 58.93a5.46 5.46 0 0 0-5.45 5.46v271.43a5.46 5.46 0 0 0 5.45 5.46h193.1a5.48 5.48 0 0 0 5.47-5.46V64.39a5.48 5.48 0 0 0-5.47-5.46Z" style="fill:#e6e6e6"/><path d="M207.75 197.46 206.38 315c-4.84 39.11-74.17 70.16-74.17 70.16S62.87 354.14 58 315l-1.41-117.54 74.1-24.39Z" style="fill:#f5f5f5"/><path d="m198.08 204.9-1.19 105.54c-4.22 34.11-64.69 61.19-64.69 61.19s-60.47-27.08-64.68-61.19L66.25 204.9l64.63-21.27Z" style="fill:#e0e0e0"/><path d="m193.84 211.56-1.12 96.89c-4 32-60.65 57.36-60.65 57.36s-56.69-25.39-60.64-57.36l-1.19-96.89 60.59-19.94Z" style="fill:none;stroke:#fff;stroke-linecap:round;stroke-linejoin:round;stroke-width:3px;stroke-dasharray:0,33"/><path d="M306.94 157.79h133.38v234.04H306.94z" style="fill:#f5f5f5"/><path d="M316.8 166.99h113.85v224.84H316.8z" style="fill:#e0e0e0"/><path d="M320 392.83a1.43 1.43 0 0 1-.58-.12 1.39 1.39 0 0 1-.48-.32 1.33 1.33 0 0 1-.33-.49 1.56 1.56 0 0 1-.11-.57 1.5 1.5 0 0 1 1.79-1.47l.28.08.26.14a2.11 2.11 0 0 1 .23.19 1 1 0 0 1 .18.23 1.08 1.08 0 0 1 .14.26 1.31 1.31 0 0 1 .09.28 1.36 1.36 0 0 1 0 .29 1.39 1.39 0 0 1-.12.57 1.43 1.43 0 0 1-.32.49 1.52 1.52 0 0 1-1.03.44ZM318.48 354.49A1.5 1.5 0 0 1 320 353a1.5 1.5 0 0 1 1.5 1.5 1.5 1.5 0 0 1-1.5 1.5 1.5 1.5 0 0 1-1.52-1.51Zm0-36.83a1.5 1.5 0 0 1 1.5-1.5 1.5 1.5 0 0 1 1.5 1.5 1.5 1.5 0 0 1-1.5 1.5 1.5 1.5 0 0 1-1.5-1.5Zm0-36.84a1.5 1.5 0 0 1 1.5-1.5 1.5 1.5 0 0 1 1.5 1.5 1.5 1.5 0 0 1-1.5 1.5 1.5 1.5 0 0 1-1.5-1.5Zm0-36.84a1.5 1.5 0 0 1 1.5-1.5 1.5 1.5 0 0 1 1.5 1.5 1.5 1.5 0 0 1-1.5 1.5 1.5 1.5 0 0 1-1.5-1.48Zm0-36.83a1.5 1.5 0 0 1 1.5-1.5 1.5 1.5 0 0 1 1.5 1.5 1.5 1.5 0 0 1-1.5 1.5 1.5 1.5 0 0 1-1.5-1.5ZM320 171.81a1.48 1.48 0 0 1-1.06-.44 1.06 1.06 0 0 1-.19-.23 2 2 0 0 1-.14-.25 1 1 0 0 1-.08-.29 1.36 1.36 0 0 1 0-.29 1.52 1.52 0 0 1 .44-1.06 1.37 1.37 0 0 1 .22-.19 1.26 1.26 0 0 1 .26-.13 1.52 1.52 0 0 1 .28-.09 1.47 1.47 0 0 1 .59 0 1.52 1.52 0 0 1 .28.09 1.26 1.26 0 0 1 .26.13 2.11 2.11 0 0 1 .23.19 1.52 1.52 0 0 1 .44 1.06 1.36 1.36 0 0 1 0 .29 1.61 1.61 0 0 1-.09.29 1.23 1.23 0 0 1-.14.25 1 1 0 0 1-.18.23 1.52 1.52 0 0 1-1.12.44ZM389.88 170.31a1.5 1.5 0 0 1 1.5-1.5 1.5 1.5 0 0 1 1.5 1.5 1.5 1.5 0 0 1-1.5 1.5 1.5 1.5 0 0 1-1.5-1.5Zm-35.7 0a1.5 1.5 0 0 1 1.5-1.5 1.5 1.5 0 0 1 1.5 1.5 1.5 1.5 0 0 1-1.5 1.5 1.5 1.5 0 0 1-1.5-1.5ZM427.08 171.81a1.43 1.43 0 0 1-.29 0l-.28-.08-.26-.14a2.11 2.11 0 0 1-.23-.19 1.5 1.5 0 0 1-.44-1.06 1.52 1.52 0 0 1 .44-1.06 1.3 1.3 0 0 1 .23-.18.94.94 0 0 1 .26-.14 1.31 1.31 0 0 1 .28-.09 1.47 1.47 0 0 1 .59 0l.28.09a.89.89 0 0 1 .25.14 1 1 0 0 1 .23.18 1.52 1.52 0 0 1 .44 1.06 1.5 1.5 0 0 1-.44 1.06 1.45 1.45 0 0 1-.23.19 2 2 0 0 1-.25.14l-.28.08a1.53 1.53 0 0 1-.3 0ZM425.58 354.49a1.5 1.5 0 0 1 1.5-1.5 1.5 1.5 0 0 1 1.5 1.5 1.5 1.5 0 0 1-1.5 1.5 1.5 1.5 0 0 1-1.5-1.5Zm0-36.83a1.5 1.5 0 0 1 1.5-1.5 1.5 1.5 0 0 1 1.5 1.5 1.5 1.5 0 0 1-1.5 1.5 1.5 1.5 0 0 1-1.5-1.5Zm0-36.84a1.5 1.5 0 0 1 1.5-1.5 1.5 1.5 0 0 1 1.5 1.5 1.5 1.5 0 0 1-1.5 1.5 1.5 1.5 0 0 1-1.5-1.5Zm0-36.84a1.5 1.5 0 0 1 1.5-1.5 1.5 1.5 0 0 1 1.5 1.5 1.5 1.5 0 0 1-1.5 1.5 1.5 1.5 0 0 1-1.5-1.48Zm0-36.83a1.5 1.5 0 0 1 1.5-1.5 1.5 1.5 0 0 1 1.5 1.5 1.5 1.5 0 0 1-1.5 1.5 1.5 1.5 0 0 1-1.5-1.5ZM427.08 392.83a1.5 1.5 0 0 1-1.06-2.56 2.11 2.11 0 0 1 .23-.19l.26-.14.28-.08a1.47 1.47 0 0 1 .59 0l.28.08a2 2 0 0 1 .25.14 1.45 1.45 0 0 1 .23.19 1.5 1.5 0 0 1 .44 1.06 1.46 1.46 0 0 1-.44 1.06 1.5 1.5 0 0 1-1.06.44Z" style="fill:#fff"/><path d="M53.79 392.21H95v.25H53.79zM137.67 390.21H179v.25h-41.33zM222.78 390.21h10v.25h-10zM86.58 398.75h46.25v.25H86.58zM271.2 392.08h21.6v.25h-21.6zM301.7 392.08h27.93v.25H301.7zM401.89 396.31h62.44v.25h-62.44z" style="fill:#e0e0e0"/><path d="M233.41 87.65h-46.07l2.52-28.71h46.06l-2.51 28.71z" style="fill:#ebebeb"/><path d="m234.34 55.04-1.26 14.99-1.26 18.02h-44.3l2.52-33.01h44.3z" style="fill:#fafafa"/><path d="m230.11 58.94 2.51 28.71h-46.06l-2.52-28.71h3.92l1.36-2.16h12.41l1.78 2.16h26.6z" style="fill:#e0e0e0"/><path d="M255.79 94.06h49.02v49.02h-49.02z" style="fill:#ebebeb"/><path d="M304.81 94.06h1.25v49.02h-1.25z" style="fill:#e0e0e0"/><path d="M260.31 98.6h39.96v39.96h-39.96z" style="fill:#f5f5f5"/><path d="M260.32 98.6h.37v39.96h-.37z" style="fill:#e0e0e0"/><ellipse cx="280.67" cy="114.43" rx="7.79" ry="9.92" style="fill:#e0e0e0"/><path d="M276.6 121.15h8.21v8.21h-8.21z" style="fill:#e0e0e0" transform="rotate(180 280.705 125.26)"/><path d="M265.4 126.12h30.08v2.8a9.64 9.64 0 0 1-9.64 9.64H275a9.64 9.64 0 0 1-9.64-9.64v-2.8h.04Z" style="fill:#e0e0e0" transform="rotate(180 280.435 132.34)"/><path d="M264.64 121.88c0 1.63 3 3 3 3s3-1.33 3-3c0-.78-1.08-1.22-1.79-1a2.18 2.18 0 0 0-1.25 1.12 3.87 3.87 0 0 0-1.47-1.2 1.12 1.12 0 0 0-1.49 1.08ZM291.26 114.59c0 2.15 3.89 3.89 3.89 3.89s3.89-1.74 3.89-3.89c0-1-1.44-1.59-2.35-1.33a2.84 2.84 0 0 0-1.54 1.48 5.26 5.26 0 0 0-1.93-1.58 1.47 1.47 0 0 0-1.96 1.43Z" style="fill:#e0e0e0"/><path d="M205.71 359.32c.46 2.89 2.55 5.38 2.71 8.3.13 2.29-.94 4.44-1.47 6.67s-.27 5 1.68 6.18a4.48 4.48 0 0 0 4.52-.27 10.26 10.26 0 0 0 3.15-3.49 32.46 32.46 0 0 0 4.85-16.48c0-2.45-.25-5.05-1.69-7-4.46-6.23-14.89-1.11-13.75 6.09ZM202 351.67a3.2 3.2 0 0 0 1.61.95 2.32 2.32 0 0 0 2.21-.43 2.61 2.61 0 0 0 .5-2.11 5 5 0 0 0-.91-2.56 2.78 2.78 0 0 0-2.36-1.15 2 2 0 0 0-1.82 1.74 6.11 6.11 0 0 0 .77 3.56Z" style="fill:#f5f5f5"/><path d="M210.31 345.66a1.92 1.92 0 0 0-1.94-.85 1.87 1.87 0 0 0-1.44 1.54 5.54 5.54 0 0 0 0 .73 5.82 5.82 0 0 0 .13 1.17 2.27 2.27 0 0 0 .51 1 2.39 2.39 0 0 0 1.25.64 1.86 1.86 0 0 0 1.67-.42 2.35 2.35 0 0 0 .52-1.75 3.72 3.72 0 0 0-.7-2.06ZM214.94 345.41a1.43 1.43 0 0 0-1.75-.66 2.08 2.08 0 0 0-1.24 1.51c0 .22-.06.44-.07.66A4.28 4.28 0 0 0 212 348a1.65 1.65 0 0 0 .52.9 1.84 1.84 0 0 0 1 .42 1.66 1.66 0 0 0 1.33-.43 2.41 2.41 0 0 0 .6-1.6 3 3 0 0 0-.51-1.88ZM219.07 346.37c-.49-.73-1-.78-1.56-.47a2.63 2.63 0 0 0-1 1.49 3.64 3.64 0 0 0-.12.59 3.1 3.1 0 0 0 0 1 1.27 1.27 0 0 0 .52.79 1.35 1.35 0 0 0 .83.2 1.61 1.61 0 0 0 1-.47 2.57 2.57 0 0 0 .67-1.43 2.41 2.41 0 0 0-.34-1.7ZM219.88 350.42a1.6 1.6 0 0 0 0 .72.75.75 0 0 0 .43.56 1.06 1.06 0 0 0 1.1-.42 2.57 2.57 0 0 0 .63-1.08 1.57 1.57 0 0 0-.15-1.22c-.89-1.45-1.89.72-2.01 1.44ZM220.69 426.11c.67-2.36 1.06-4.95.17-7.24-2.75-7.13-14.11-4.86-14.86 2.4ZM204.42 412.93a3.19 3.19 0 0 0 1.32 1.33 2.31 2.31 0 0 0 2.24.15 2.63 2.63 0 0 0 1-1.91 5 5 0 0 0-.22-2.7 2.81 2.81 0 0 0-2-1.73 2 2 0 0 0-2.2 1.21 6.17 6.17 0 0 0-.14 3.65Z" style="fill:#f5f5f5"/><path d="M214 409.24a1.94 1.94 0 0 0-1.66-1.32 1.89 1.89 0 0 0-1.79 1.12 5.78 5.78 0 0 0-.22.7 5.51 5.51 0 0 0-.18 1.16 2.2 2.2 0 0 0 .23 1.13 2.42 2.42 0 0 0 1 .93 1.82 1.82 0 0 0 1.71 0 2.36 2.36 0 0 0 1-1.55 3.84 3.84 0 0 0-.09-2.17ZM218.5 410.19a1.44 1.44 0 0 0-1.5-1.09 2.11 2.11 0 0 0-1.59 1.15 6.44 6.44 0 0 0-.24.61 4.07 4.07 0 0 0-.2 1.05 1.69 1.69 0 0 0 .26 1 1.81 1.81 0 0 0 .9.67 1.64 1.64 0 0 0 1.4-.08 2.4 2.4 0 0 0 1-1.38 3 3 0 0 0-.03-1.93ZM222.24 412.18c-.28-.84-.81-1-1.38-.86a2.66 2.66 0 0 0-1.38 1.17 5.42 5.42 0 0 0-.27.54 3.07 3.07 0 0 0-.22.94 1.28 1.28 0 0 0 .29.89 1.33 1.33 0 0 0 .75.41 1.55 1.55 0 0 0 1.09-.19 2.58 2.58 0 0 0 1-1.21 2.4 2.4 0 0 0 .12-1.69ZM222 416.3a1.58 1.58 0 0 0-.21.69.77.77 0 0 0 .27.65 1.06 1.06 0 0 0 1.17-.12 2.68 2.68 0 0 0 .89-.88 1.59 1.59 0 0 0 .17-1.22c-.52-1.63-1.97.23-2.29.88ZM181.27 383.66c.37 2.91-1 5.88-.3 8.73.51 2.23 2.14 4 3.26 6s1.65 4.72.09 6.4a4.46 4.46 0 0 1-4.41 1 10.49 10.49 0 0 1-4-2.49 32.45 32.45 0 0 1-9.22-14.49c-.72-2.35-1.16-4.92-.32-7.23 2.63-7.19 14.01-5.15 14.9 2.08ZM182.68 375.3a3.15 3.15 0 0 1-1.28 1.35 2.29 2.29 0 0 1-2.24.2 2.59 2.59 0 0 1-1.07-1.89 5.09 5.09 0 0 1 .16-2.71 2.81 2.81 0 0 1 2-1.76 2 2 0 0 1 2.23 1.16c.28.93.63 2.74.2 3.65Z" style="fill:#f5f5f5"/><path d="M173.07 371.81a1.94 1.94 0 0 1 1.63-1.36 1.89 1.89 0 0 1 1.81 1.09 5 5 0 0 1 .24.69 5.42 5.42 0 0 1 .2 1.15 2.14 2.14 0 0 1-.21 1.14 2.34 2.34 0 0 1-1 1 1.82 1.82 0 0 1-1.71.07 2.36 2.36 0 0 1-1-1.54 3.72 3.72 0 0 1 .04-2.24ZM168.55 372.85a1.43 1.43 0 0 1 1.5-1.12 2.11 2.11 0 0 1 1.61 1.11 5.22 5.22 0 0 1 .25.61 4.1 4.1 0 0 1 .23 1.05 1.73 1.73 0 0 1-.25 1 1.81 1.81 0 0 1-.88.69 1.63 1.63 0 0 1-1.4-.05 2.37 2.37 0 0 1-1-1.36 3 3 0 0 1-.06-1.93ZM164.85 374.92c.27-.84.79-1 1.37-.89a2.66 2.66 0 0 1 1.4 1.15 4.6 4.6 0 0 1 .28.53 2.72 2.72 0 0 1 .24.93 1.24 1.24 0 0 1-.27.9 1.32 1.32 0 0 1-.74.42 1.57 1.57 0 0 1-1.1-.16 2.63 2.63 0 0 1-1.05-1.19 2.41 2.41 0 0 1-.13-1.69ZM165.19 379a1.76 1.76 0 0 1 .23.69.79.79 0 0 1-.26.66 1.09 1.09 0 0 1-1.18-.1 2.56 2.56 0 0 1-.9-.86 1.55 1.55 0 0 1-.19-1.22c.47-1.61 1.96.22 2.3.83Z" style="fill:#f5f5f5"/><path d="M156.73 143.59a11.75 11.75 0 1 1 10-13.27 11.77 11.77 0 0 1-10 13.27Zm-2.38-17.1a5.51 5.51 0 1 0 6.21 4.7 5.52 5.52 0 0 0-6.21-4.7Z" style="fill:#e0e0e0"/><path d="M149.86 97.09h4.46v28.69h-4.46z" style="fill:#e0e0e0" transform="rotate(-7.95 151.977 111.35)"/><path d="M147.94 93.82h8.37v4.46h-8.37z" style="fill:#e0e0e0" transform="rotate(-8.1 149.99 95.142)"/><path d="M149.23 99.46h7.87v4.46h-7.87z" style="fill:#e0e0e0" transform="rotate(-7.94 153.286 101.78)"/><path d="M151.36 107.4h6.87v4.46h-6.87z" style="fill:#e0e0e0" transform="rotate(-7.94 154.907 109.711)"/><ellipse cx="250" cy="431.27" rx="193.89" ry="11.32" style="fill:#f5f5f5"/><ellipse cx="128.44" cy="225.06" rx="24.14" ry="26.34" style="fill:#3e7bfa" transform="rotate(-46.25 128.443 225.057)"/><g style="opacity:.8"><ellipse cx="128.44" cy="225.06" rx="24.14" ry="26.34" style="fill:#fff" transform="rotate(-46.25 128.443 225.057)"/></g><path d="M116.69 209.24a1 1 0 0 1-.6-1.8 19.21 19.21 0 0 1 11.57-3.6 1 1 0 0 1 0 2 17.18 17.18 0 0 0-10.37 3.2 1 1 0 0 1-.6.2ZM121.42 243.64a1 1 0 0 1-.47-.12 23.3 23.3 0 0 1-11.9-16.18 20.37 20.37 0 0 1 4-17 1 1 0 0 1 1.54 1.28A18.39 18.39 0 0 0 111 227a21.37 21.37 0 0 0 10.88 14.8 1 1 0 0 1-.47 1.88ZM131.43 246.25a21.6 21.6 0 0 1-6.59-1.06 1 1 0 0 1 .62-1.91c6.15 2 12.29.88 16.84-3a17.92 17.92 0 0 0 5.78-16.6 1 1 0 1 1 2-.32 19.83 19.83 0 0 1-6.45 18.43 18.44 18.44 0 0 1-12.2 4.46ZM148.25 221.12a1 1 0 0 1-.95-.7 21.31 21.31 0 0 0-11.58-12.89 1 1 0 0 1 .8-1.84 23.34 23.34 0 0 1 12.68 14.12 1 1 0 0 1-.64 1.26 1.18 1.18 0 0 1-.31.05Z" style="fill:#3e7bfa"/><path d="M132.49 206.4a.85.85 0 0 1-.23 0 20.33 20.33 0 0 0-4.59-.53 1 1 0 0 1-1-1 1 1 0 0 1 1-1 22.05 22.05 0 0 1 5 .59 1 1 0 0 1-.23 2ZM114.85 230.29a1 1 0 0 1-.94-.65 15.87 15.87 0 0 1 1.76-14.78 15 15 0 0 1 12.52-6.46 1 1 0 0 1 0 2 13.09 13.09 0 0 0-10.89 5.6 13.93 13.93 0 0 0-1.51 13 1 1 0 0 1-.59 1.28 1.07 1.07 0 0 1-.35.01ZM130.71 241.71a18.63 18.63 0 0 1-15-8.47 1 1 0 0 1 1.67-1.09 16.62 16.62 0 0 0 13.33 7.56 1 1 0 0 1 0 2Z" style="fill:#3e7bfa"/><path d="M134.45 241.28a1 1 0 0 1-1-.76 1 1 0 0 1 .73-1.21c8.11-2 10.21-9.11 9.54-14.57-.87-7.12-6.49-14.33-15.56-14.34a1 1 0 0 1-1-1 1 1 0 0 1 1-1c10.23 0 16.57 8.1 17.55 16.1 1 8.25-3.33 14.83-11.05 16.75a1 1 0 0 1-.21.03Z" style="fill:#3e7bfa"/><path d="M124.1 215.92a1 1 0 0 1-.9-.58 1 1 0 0 1 .48-1.33 11.71 11.71 0 0 1 4.87-1 1 1 0 0 1 0 2 9.66 9.66 0 0 0-4 .87 1 1 0 0 1-.45.04ZM130.53 237.05a13.25 13.25 0 0 1-11.91-7.9c-2.07-4.51-1.46-9.22 1.63-12.62a1 1 0 0 1 1.41-.06 1 1 0 0 1 .06 1.41 9.28 9.28 0 0 0-1.28 10.43 11.25 11.25 0 0 0 10.41 6.74 8.64 8.64 0 0 0 7.85-5.17 10.33 10.33 0 0 0-1.84-10.88 1 1 0 1 1 1.52-1.3 12.32 12.32 0 0 1 2.15 13 10.62 10.62 0 0 1-9.62 6.36Z" style="fill:#3e7bfa"/><path d="M134.74 216.8a.94.94 0 0 1-.53-.16 10.56 10.56 0 0 0-5.66-1.68 1 1 0 0 1 0-2 12.48 12.48 0 0 1 6.73 2 1 1 0 0 1-.54 1.84ZM130 232.54a8 8 0 0 1-6.11-2.9 7.61 7.61 0 0 1-1.2-8.15 6.75 6.75 0 0 1 6.27-4 1 1 0 0 1 0 2 4.79 4.79 0 0 0-4.45 2.81 5.61 5.61 0 0 0 .91 6 5.91 5.91 0 0 0 6 2 4.73 4.73 0 0 0 3.59-3.64 1 1 0 0 1 1.19-.76 1 1 0 0 1 .77 1.19 6.71 6.71 0 0 1-5.06 5.15 8.12 8.12 0 0 1-1.91.3Z" style="fill:#3e7bfa"/><path d="M135.82 224.62a1 1 0 0 1-1-.7 6.32 6.32 0 0 0-5.87-4.4 1 1 0 1 1 0-2 8.37 8.37 0 0 1 7.78 5.8 1 1 0 0 1-.65 1.26 1 1 0 0 1-.26.04ZM130.27 228.38a1 1 0 0 1 0-2 1 1 0 0 0 1-1.06 1.47 1.47 0 0 0-1.45-1.51 1.11 1.11 0 0 0-.78.35 1.2 1.2 0 0 0-.28.88 1 1 0 1 1-2 .12 3.09 3.09 0 0 1 3-3.35 3.46 3.46 0 0 1 3.45 3.51 3 3 0 0 1-3 3.06Z" style="fill:#3e7bfa"/><path d="M156 225.05c1.22 13.93-9.09 25.22-23 25.22h-1.08c13.26-.68 22.89-11.7 21.71-25.19a28.13 28.13 0 0 0-26.11-25.18h1.07c13.95-.06 26.23 11.23 27.41 25.15Z" style="fill:#3e7bfa"/><g style="opacity:.4;isolation:isolate"><path d="M156 225.05c1.22 13.93-9.09 25.22-23 25.22h-1.08c13.26-.68 22.89-11.7 21.71-25.19a28.13 28.13 0 0 0-26.11-25.18h1.07c13.95-.06 26.23 11.23 27.41 25.15Z" style="fill:#fff"/></g><path d="M176.42 102.14a8.66 8.66 0 0 0 .12.89 9.12 9.12 0 0 0 2.82 5 9 9 0 0 0 6.07 2.43h84.49a7.44 7.44 0 0 0 7.59-7.4 8.88 8.88 0 0 0 0-.89 9.25 9.25 0 0 0-9-8.28H184a7.47 7.47 0 0 0-7.58 8.25Z" style="fill:#3e7bfa"/><path d="M176.42 102.14a8.66 8.66 0 0 0 .12.89 9.12 9.12 0 0 0 2.82 5 9 9 0 0 0 6.07 2.43h84.49a7.44 7.44 0 0 0 7.59-7.4 8.88 8.88 0 0 0 0-.89 9.25 9.25 0 0 0-9-8.28H184a7.47 7.47 0 0 0-7.58 8.25Z" style="fill:#fff;opacity:.8"/><path d="M277.51 103a5.29 5.29 0 0 1-.06.8 9.25 9.25 0 0 0-9-8l-89.83.2a7.56 7.56 0 0 1 5.38-2.14h84.49a9.25 9.25 0 0 1 9 8.28 8.88 8.88 0 0 1 .02.86Z" style="fill:#3e7bfa"/><path d="M277.51 103a5.29 5.29 0 0 1-.06.8 9.25 9.25 0 0 0-9-8l-89.83.2a7.56 7.56 0 0 1 5.38-2.14h84.49a9.25 9.25 0 0 1 9 8.28 8.88 8.88 0 0 1 .02.86Z" style="fill:#fff;opacity:.5;isolation:isolate"/><path d="m263 97.86.36 4 3.76-1.4.89 2-3.84 1.28 2.76 3.39-1.73 1.27-2.69-3.52-2 3.52-1.89-1.27 2.13-3.39-4-1.28.54-2 4.05 1.35-.36-4ZM239.85 97.86l.36 4 3.76-1.4.9 2-3.87 1.31 2.76 3.39-1.72 1.27-2.69-3.52-2 3.52-1.9-1.27 2.14-3.39-4-1.28.54-2 4.05 1.35-.35-4ZM216.75 97.86l.35 4 3.76-1.4.9 2-3.85 1.28 2.76 3.39-1.67 1.3-2.69-3.52-2 3.52-1.89-1.27 2.13-3.39-4-1.28.55-2 4 1.35-.35-4ZM193.64 97.86l.35 4 3.77-1.4.89 2-3.85 1.28 2.77 3.39-1.73 1.27-2.69-3.52-2 3.52-1.89-1.27 2.13-3.39-4-1.28.54-2 4 1.35-.35-4ZM245.71 89.94h3.94v1h-3.94zM253.73 89.94h12.85v1h-12.85z" style="fill:#3e7bfa"/><path d="M397.79 127.24 393.7 174a6.17 6.17 0 0 1-6 5.52h-32.47a5 5 0 0 1-5-5.52l4.09-46.77a6.14 6.14 0 0 1 6-5.52h32.47a5 5 0 0 1 5 5.53Z" style="fill:#3e7bfa;opacity:.8"/><path d="M397.79 127.24 393.7 174a6.17 6.17 0 0 1-6 5.52h-32.47a5 5 0 0 1-5-5.52l4.09-46.77a6.14 6.14 0 0 1 6-5.52h32.47a5 5 0 0 1 5 5.53Z" style="fill:#fff;opacity:.8"/><path d="M357.28 134.78h-.09a1 1 0 0 1-.91-1.08l.38-4.28a1 1 0 0 1 1-.91h4.52a1 1 0 0 1 0 2h-3.6l-.3 3.36a1 1 0 0 1-1 .91ZM393.64 134.78h-.09a1 1 0 0 1-.91-1.08l.28-3.19h-3.42a1 1 0 0 1 0-2h4.5a1 1 0 0 1 1 1.09l-.38 4.27a1 1 0 0 1-.98.91ZM359 167.05h-4.52a1 1 0 0 1-.73-.32 1 1 0 0 1-.26-.76l.37-4.28a1 1 0 0 1 2 .17l-.28 3.19H359a1 1 0 0 1 0 2ZM390.81 167.05h-4.51a1 1 0 0 1 0-2h3.6l.29-3.36a1 1 0 0 1 1.08-.91 1 1 0 0 1 .91 1.08l-.37 4.28a1 1 0 0 1-1 .91Z" style="fill:#3e7bfa"/><ellipse cx="374.61" cy="147.63" rx="16.37" ry="13.16" style="fill:#fff" transform="rotate(-75.54 374.624 147.626)"/><path d="M378.55 172.53H365.6l1.13-12.95h12.95l-1.13 12.95z" style="fill:#fff"/><path d="M393.7 174a6.17 6.17 0 0 1-6 5.52h-32.47a5 5 0 0 1-5-5.52s14.92-4.72 16.76-4.72h11.53Z" style="fill:#fff"/><path d="M390.17 149.62h18.43v1h-18.43z" style="fill:#3e7bfa" transform="rotate(-85.29 399.407 150.108)"/><path d="M399.24 133.84h3.62v1h-3.62z" style="fill:#3e7bfa" transform="rotate(-85.29 401.067 134.328)"/><path d="M361.94 244.07h3.94v1h-3.94zM369.96 244.07h12.85v1h-12.85z" style="fill:#3e7bfa"/><path d="m406.33 227-2.49 28.5a5.18 5.18 0 0 1-5.06 4.65 4.2 4.2 0 0 1-4.25-4.65L397 227a15.08 15.08 0 0 0-15.24-16.7H371.6a18.61 18.61 0 0 0-18.16 16.7l-1 11.64h-9.3l1-11.64c1.25-14.34 13.94-26 28.27-26h10.2a23.47 23.47 0 0 1 23.72 26Z" style="fill:#3e7bfa"/><g style="opacity:.5;isolation:isolate"><path d="m406.33 227-2.49 28.5a5.18 5.18 0 0 1-5.06 4.65 4.2 4.2 0 0 1-4.25-4.65L397 227a15.08 15.08 0 0 0-15.24-16.7H371.6a18.61 18.61 0 0 0-18.16 16.7l-1 11.64h-9.3l1-11.64c1.25-14.34 13.94-26 28.27-26h10.2a23.47 23.47 0 0 1 23.72 26Z" style="fill:#fff"/></g><path d="M407 254.46 402.15 310a7.07 7.07 0 0 1-6.92 6.35h-55.54a5.73 5.73 0 0 1-5.8-6.35l4.86-55.54a7.07 7.07 0 0 1 3.46-5.39 6.8 6.8 0 0 1 3.46-1h55.53a6 6 0 0 1 3.21.91 5.76 5.76 0 0 1 2.59 5.48Z" style="fill:#3e7bfa"/><path d="m349.25 278.72 14.43 22.21 47.59-47.59a.48.48 0 0 0-.63-.71l-45.35 35.55-8.57-13.81Z" style="fill:#fff"/><path d="M122 171.31H85.82a6.85 6.85 0 0 1-6.69-6.15L76 129a5.54 5.54 0 0 1 5.61-6.15h36.14a6.84 6.84 0 0 1 6.65 6.15l3.16 36.14a5.54 5.54 0 0 1-5.56 6.17Z" style="fill:#3e7bfa"/><path d="M122 171.31H85.82a6.85 6.85 0 0 1-6.69-6.15L76 129a5.54 5.54 0 0 1 5.61-6.15h36.14a6.84 6.84 0 0 1 6.65 6.15l3.16 36.14a5.54 5.54 0 0 1-5.56 6.17Z" style="fill:#fff;opacity:.8"/><path d="M79.15 150.73S92 132.84 101.46 133.3s25.18 17 25.18 17-23.17 12.17-47.49.43Z" style="fill:#fff"/><path d="m79.56 151-.81-.58c.52-.73 12.77-17.65 22.35-17.65h.39c9.56.46 24.86 16.48 25.51 17.16l-.72.69c-.16-.16-15.68-16.41-24.84-16.85h-.34c-9.1.02-21.42 17.08-21.54 17.23Z" style="fill:#263238"/><path d="M77.82 151.36c-1.94 0-4.46-.72-5.35-3.46a.5.5 0 0 1 .32-.63.49.49 0 0 1 .63.32c1.15 3.54 5.45 2.69 5.63 2.65a.51.51 0 0 1 .59.39.5.5 0 0 1-.39.59 7.36 7.36 0 0 1-1.43.14ZM85.45 143.68a.5.5 0 0 1-.31-.1c-.15-.12-3.7-2.86-4.6-5.65a.5.5 0 0 1 .32-.63.51.51 0 0 1 .63.32c.81 2.49 4.22 5.14 4.26 5.16a.5.5 0 0 1 .09.7.5.5 0 0 1-.39.2ZM92.79 136.87a.52.52 0 0 1-.49-.51 52.06 52.06 0 0 0-2.17-6.4c-.25-.66-.43-1.14-.47-1.26a.5.5 0 0 1 .34-.63.5.5 0 0 1 .62.34c0 .12.21.56.44 1.19 1.4 3.67 2.26 6.08 2.24 6.78a.49.49 0 0 1-.51.49ZM101.46 133.8a.52.52 0 0 1-.5-.46l-.7-8a.5.5 0 0 1 1-.09l.7 8.06a.51.51 0 0 1-.45.54ZM128.14 150.81a8.44 8.44 0 0 1-1.46-.12.5.5 0 0 1-.39-.59.48.48 0 0 1 .58-.39s2.45.47 3.95-.59a2.8 2.8 0 0 0 1.14-2 .5.5 0 1 1 1 .15 3.79 3.79 0 0 1-1.56 2.65 5.7 5.7 0 0 1-3.26.89ZM119.16 143.15a.48.48 0 0 1-.37-.17.5.5 0 0 1 0-.71s3-2.64 3.32-5.1a.51.51 0 0 1 .57-.42.5.5 0 0 1 .42.57c-.42 2.82-3.52 5.58-3.65 5.7a.46.46 0 0 1-.29.13ZM110.71 137.34h-.09a.51.51 0 0 1-.41-.58c0-.06 1.1-6.49 1.3-7.81a.5.5 0 1 1 1 .15c-.2 1.33-1.29 7.77-1.3 7.83a.5.5 0 0 1-.5.41Z" style="fill:#263238"/><ellipse cx="102.45" cy="144.63" rx="10.84" ry="11.84" style="fill:#3e7bfa" transform="rotate(-46.25 102.46 144.632)"/><path d="M107.14 144.63a6.45 6.45 0 0 0 0-.76 5.36 5.36 0 0 0-5.24-4.81 4.34 4.34 0 0 0-4.39 4.81 3.28 3.28 0 0 0 .14.76h-6.52a10.21 10.21 0 0 1 10.33-11.33 12.63 12.63 0 0 1 12.33 11.33Z" style="opacity:.30000000000000004"/><path d="M107.13 143.87a6.45 6.45 0 0 1 0 .76 4.33 4.33 0 0 1-4.41 4.05 5.35 5.35 0 0 1-5.09-4.05 3.28 3.28 0 0 1-.14-.76 4.34 4.34 0 0 1 4.39-4.81 5.36 5.36 0 0 1 5.25 4.81Z" style="opacity:.7000000000000001"/><path d="M109.74 139.15a3.54 3.54 0 0 1-3.58 3.92 4.37 4.37 0 0 1-4.26-3.92 3.53 3.53 0 0 1 3.58-3.92 4.36 4.36 0 0 1 4.26 3.92Z" style="fill:#fff;opacity:.7000000000000001"/><path d="M90.32 118.38h3.94v1h-3.94zM98.34 118.38h12.85v1H98.34z" style="fill:#3e7bfa"/><path d="m276 191.65.34.41.46.53c.33.35.65.72 1 1.06.69.72 1.44 1.42 2.2 2.13a58.1 58.1 0 0 0 4.77 3.95c1.69 1.26 3.47 2.41 5.25 3.55 1 .54 1.82 1.11 2.76 1.63l2.17 1.2a1.44 1.44 0 0 0 1 .06c.7-.21 4.72-4.19 6-5.67 2.84-3.25 7.14-7.53 9.46-11.17l2.59 3.57a58.69 58.69 0 0 1-6.47 12.64 28 28 0 0 1-5.1 5.71 14.34 14.34 0 0 1-3.92 2.35 9.51 9.51 0 0 1-5.68.43 8.9 8.9 0 0 1-1.43-.48l-.9-.39-1.62-.74c-1.09-.48-2.14-1.06-3.2-1.59a66.35 66.35 0 0 1-6.16-3.73 63.54 63.54 0 0 1-5.75-4.46c-.95-.83-1.8-1.67-2.67-2.58-.43-.45-.87-.92-1.29-1.41l-.62-.76c-.23-.28-.4-.49-.71-.92Z" style="fill:#ffb573"/><path d="m311 189.88 4.64-9.92 4.43 7.94s-2.91 5-6.07 5ZM320.9 175.84l4.68 6.02-5.47 6.03-4.43-7.93 5.22-4.12z" style="fill:#ffb573"/><path d="M319.27 190.63h7.37a.84.84 0 0 0 .83-.76L329 172.2a.83.83 0 0 0-.83-.91h-7.36a.84.84 0 0 0-.83.77l-1.55 17.66a.84.84 0 0 0 .84.91Z" style="fill:#3e7bfa"/><path d="M319.35 188.86h7.38l1.38-15.79h-7.38l-1.38 15.79z" style="fill:#fff;opacity:.30000000000000004"/><path d="m318.87 186.62 1.31-.67a8 8 0 0 0 1.83-1.28l.24-.87a1.26 1.26 0 0 0-1.39-.57l-1.09.3-5.41.41-.13 2.28 1.58 2.44h.54a2.47 2.47 0 0 0 2.52-2.04Z" style="fill:#ffb573"/><path d="M266.56 182c3.75-.68 30.2 22.25 30.2 22.25l-7.84 11.5s-28.92-20.14-28-25c.89-5.11.18-7.75 5.64-8.75Z" style="fill:#263238"/><path d="m269.9 189.33-.29 12c3 2.33 13.84 10.64 13.84 10.64Z" style="opacity:.2;isolation:isolate"/><path d="m248.93 420.31 8.87.87 2.82-20.57-8.88-.87-2.81 20.57zM161.6 299.61l-2.27 8.64 19.19 8.27 3.98-8.77-20.9-8.14z" style="fill:#ffb573"/><path d="M264.15 423a3.38 3.38 0 0 0 2.19-.48 1.18 1.18 0 0 0 .4-1 .65.65 0 0 0-.34-.57c-1.07-.64-4.69 1.08-5.1 1.27a.21.21 0 0 0-.12.21.21.21 0 0 0 .17.18 15.5 15.5 0 0 0 2.8.39Zm1.61-1.79a.7.7 0 0 1 .4.09.26.26 0 0 1 .14.23.8.8 0 0 1-.27.67c-.55.47-2 .51-4 .13a11.52 11.52 0 0 1 3.76-1.13Z" style="fill:#3e7bfa"/><path d="M261.39 422.57h.08c1.08-.45 3.25-2.31 3.11-3.33a.79.79 0 0 0-.78-.62 1.47 1.47 0 0 0-1.19.3c-1.15.89-1.42 3.3-1.44 3.39a.23.23 0 0 0 .05.21.22.22 0 0 0 .17.05Zm2.21-3.57h.12c.39.06.41.21.41.26.09.61-1.39 2.09-2.5 2.68a4.78 4.78 0 0 1 1.22-2.72 1.06 1.06 0 0 1 .77-.19Z" style="fill:#3e7bfa"/><path d="m257.36 417.6-8 .34a.7.7 0 0 0-.69.63l-1.92 11.17a1.44 1.44 0 0 0 1.37 1.52h.16c3.49-.18 5.17-.44 9.59-.59 2.71-.09 11 .89 14.7.05s3-4.51 1.41-4.48c-5.14.1-11.07-3.25-14-7.17-.51-.33-2.06-1.5-2.62-1.47ZM163.41 309.38l4.08-6.93a.69.69 0 0 0-.17-.92l-8.32-7.67a1.45 1.45 0 0 0-2 .32l-.09.14c-1.74 3-2.43 4.58-4.7 8.37-1.4 2.33-6.74 8.8-8 12.33s2.16 5 3 3.62c2.71-4.38 8.74-7.54 13.64-7.92.47-.18 2.28-.85 2.56-1.34Z" style="fill:#263238"/><path d="m260.62 400.61-1.45 10.61-8.88-.87 1.44-10.6 8.89.86zM188.4 309.89l-4.1 9.25-12.36-5.46 3.15-8.81 13.31 5.02z" style="opacity:.2"/><path d="M272.23 192.55c5.07 8.62-1.13 15.89-6.31 41.65l-33.42.09c.54-13.88.48-25.1-5.44-52.41a4.58 4.58 0 0 1 4.49-5.6c2.76 0 6.23.09 9.76.45a121.54 121.54 0 0 1 16.55 2.51 68.75 68.75 0 0 1 8.7 2.72c1.72.58 3.79 5.26 5.67 10.59Z" style="fill:#263238"/><path d="M267.16 235.94s18.77 54.27 18.32 80.37c-.26 14.95-1.39 42.81-5.9 62.4-3.68 16-18.68 26.2-18.68 26.2l-12-.71s-6.5-24.4-5.37-34.11c2.25-19.33 8.92-33.85 8.11-51.6-1.28-29.06-9.88-83-9.88-83Z" style="fill:#3e7bfa"/><path d="m246.49 407.33 16.95 1 1.54-5.09-18.94-1.75.45 5.84z" style="fill:#263238"/><path d="M248.63 345.58s0-.1.1-.09c10.65 1 18-14.33 16.25-35.32l-5.65-53.5Z" style="opacity:.2;isolation:isolate"/><path d="M258.74 235.49s14.92 95.43-16.1 106.17c-16.37 6.2-30.14-.52-46.45-7.74-9.43-4.17-21.21-15.46-21.21-15.46l4.53-12.33a59 59 0 0 1 25-1.26c15.9 2.46 16.57 7 22.22 3.57 11.88-29.36-8.56-52.57 5.33-73Z" style="fill:#3e7bfa"/><path d="m180.4 303.79-6.06 15.99 4.46 3.41 7.2-19.03-5.6-.37z" style="fill:#263238"/><path d="M177.9 217.56c-1.51 2.23-9.17.72-9.17.72l-1.63-9.49 9.41 3.77Z" style="fill:#ffb573"/><path d="m169 208.3 1.46 9.86-5.65.84a1.24 1.24 0 0 1-1.33-1l-2.17-7a.65.65 0 0 1 .46-.77Z" style="fill:#ffb573"/><path d="m166.47 212.77 3.22.57 3.05-2.29-1.18-.84a4 4 0 0 1-1.58-2.37 17.34 17.34 0 0 1-.41-3.05v-.34a1.39 1.39 0 0 0-1.18-1.2l-.8.59c-.5 1.09-.14 2.36-.2 3.21l-.13 1.65-1.29.56ZM228.67 180l-18.92 26-34.75 6.86v5.7s32.66 2.42 40-1.85 19.65-30.17 19.65-30.17Z" style="fill:#ffb573"/><path d="M228.45 130c-7.94-2.66-17.15 2.27-20.78 9.81s-2.36 16.79 1.73 24.09c1.23 2.21 2.7 4.29 3.71 6.6a10.44 10.44 0 0 1 .69 7.37c-.82 2.39-1.66 3.92-4.62 3.54 0 0 0-1.64 1.13-1.44s-2.4 1.33-3.34.46c1.09 1.68 4 1.07 4.93-.71 1.39-2.65-1.17-6.24-4.17-6.21s-5.44 3.07-5.34 6.06a8.22 8.22 0 0 0 5 6.89 3.72 3.72 0 0 1-4-2.15c1.36 3.56 5.8 5.13 9.55 4.43s6.92-3.1 9.86-5.53c4-3.28 8.09-7.43 8-12.56-.09-3.83-2.55-7.12-4.62-10.35s-3.88-7.17-2.56-10.76c1.11-3.05 4.13-4.89 6.79-6.75 1.92-1.33 5.82-4.3 5.36-7.11-.47-2.68-5.07-4.93-7.32-5.68Z" style="fill:#263238"/><path d="m210.56 219-5.24-13.87 1.2.1a5.07 5.07 0 0 0 4.85-2.58c4-7.12 14.33-25.19 17.24-26.09 4.15-1.23 8.42 2.09 10 7 1.19 3.61-11 19.09-16.62 27.89-4.99 7.79-11.43 7.55-11.43 7.55Z" style="fill:#263238"/><path d="M159.45 313.94v.11a1.22 1.22 0 0 0 .9.76.74.74 0 0 0 .71-.15c.84-.77.3-4 .25-4.32a.2.2 0 0 0-.16-.17.24.24 0 0 0-.21.08c-.68.96-1.76 2.67-1.49 3.69Zm1.54-3c.18 1.28.26 3-.21 3.42a.33.33 0 0 1-.32 0 .8.8 0 0 1-.6-.5c-.18-.54.2-1.64 1.13-2.94Z" style="fill:#3e7bfa"/><path d="M161 310.76c.26 1.08 1.28 2.92 2.18 3.14a.74.74 0 0 0 .82-.42 1.11 1.11 0 0 0 .06-.94c-.41-1.24-2.77-2.26-2.87-2.31a.22.22 0 0 0-.21 0 .22.22 0 0 0-.08.2 2.19 2.19 0 0 0 .1.33Zm2.72 2a.68.68 0 0 1-.09.52c-.13.24-.26.24-.36.22-.61-.12-1.54-1.63-1.84-2.68.77.39 2 1.12 2.26 1.88a.09.09 0 0 0 0 .06ZM232.38 232.6l-.93 3.25c-.12.25.17.51.59.5h34.5c.33 0 .6-.17.62-.37l.32-3.25c0-.22-.26-.42-.62-.41h-33.9a.64.64 0 0 0-.58.28Z" style="fill:#3e7bfa"/><path d="m232.38 232.6-.93 3.25c-.12.25.17.51.59.5h34.5c.33 0 .6-.17.62-.37l.32-3.25c0-.22-.26-.42-.62-.41h-33.9a.64.64 0 0 0-.58.28Z" style="fill:#fff;opacity:.5;isolation:isolate"/><path d="M239 236.65h-1c-.19 0-.35-.1-.33-.22l.45-4.23c0-.12.19-.22.39-.22h1c.19 0 .34.1.33.23l-.45 4.22c-.06.12-.24.23-.39.22ZM263.87 236.65h-1c-.18 0-.34-.1-.32-.22l.45-4.22c0-.13.18-.23.37-.23h1c.19 0 .35.1.33.22l-.45 4.22c-.02.13-.18.23-.38.23ZM252.46 236.63h-1c-.19 0-.35-.1-.33-.22l.45-4.22c0-.13.19-.23.38-.23h1c.19 0 .34.1.33.22l-.46 4.22c0 .13-.17.23-.37.23Z" style="fill:#3e7bfa"/><path d="M242.87 158.53c1.06 5.45 2.1 15.29-1.6 18.25 0 0 1.48 5.59 11.37 7.08 10.92 1.64 5.19-4.58 5.19-4.58-5.95-2.35-5.8-6.65-4.78-10.61Z" style="fill:#ffb573"/><path d="M241.31 176.73a106.07 106.07 0 0 1 15.69 2.18l7.48 2.23c1.33 2.68-.85 8.19-7.11 9.24 0 0-15.77 2.17-20.42-14.07Z" style="fill:#ffb573"/><path d="m247 162.68 6 6a15.21 15.21 0 0 0-.49 2.84c-2.28-.67-5.94-3.18-6.19-5.58a8.25 8.25 0 0 1 .68-3.26Z" style="opacity:.2;isolation:isolate"/><path d="M236.19 151.65c2.68 8.46 3.62 12.1 9.11 15.43 8.18 5 18-.12 17.9-9.2-.08-8.18-4.43-20.64-13.72-22a12.1 12.1 0 0 0-13.29 15.74Z" style="fill:#ffb573"/><path d="M256.38 150.33a19 19 0 0 0 3.41 4 3.12 3.12 0 0 1-2.43 1Z" style="fill:#ed893e"/><path d="M255.43 159.85a5.82 5.82 0 0 0 1-.2.2.2 0 0 0 .15-.24.21.21 0 0 0-.25-.15 5.67 5.67 0 0 1-5-1 .22.22 0 0 0-.31 0 .21.21 0 0 0 0 .3 6 6 0 0 0 4.41 1.29Z" style="fill:#263238"/><path d="M233.28 134.76a8.2 8.2 0 0 0-3.74 6.55 3.06 3.06 0 0 0 .23 1.47 1.42 1.42 0 0 0 1.14.85c.76 0 1.32-.68 1.74-1.32l1.94-3a14.91 14.91 0 0 0 2-3.19c.65-1.97-2.12-2.12-3.31-1.36Z" style="fill:#3e7bfa"/><path d="M234.23 136.75c-5.31 6.14-7.69 23.13 7.87 27.87 2.6-2.06-1.6-5.81-3.38-10.55-1.17-3.1 4.76-8.89 7.07-11.27s4.44-5.81 7.7-5.26a4.4 4.4 0 0 0 2.56.07c2.59-1.17 1.33-2.72 0-3.8a13.31 13.31 0 0 0-7-2.58 17.33 17.33 0 0 0-14.82 5.52Z" style="fill:#263238"/><path d="M251.5 134.69c6.25 5.21-2 5.34-6.37 8.64-4.19 3.17-1.25 8.36-8.34 10.77-5.79 1.69-7.13.67-8.73-.45a9.12 9.12 0 0 0 7.53-8.19c.49-3.8 8.77-16.81 15.91-10.77Z" style="fill:#263238"/><path d="M235.25 158.76a6.55 6.55 0 0 0 4.16 2.7c2.24.39 3.1-1.66 2.33-3.66-.73-1.8-2.76-4.17-4.93-3.66a2.91 2.91 0 0 0-2.09 3.54 3 3 0 0 0 .53 1.08Z" style="fill:#ffb573"/><path d="M250.43 135.22c1.21 3.08 4.7 2.67 7.28 5.89 1.59 2 4.71-4.17.46-6.6s-9.64-4.11-7.74.71ZM246.75 148.22a.42.42 0 0 0 .43-.25c.82-1.82 3.28-2.28 3.3-2.28a.44.44 0 0 0 .34-.5.42.42 0 0 0-.49-.33c-.13 0-2.93.59-3.93 2.79a.43.43 0 0 0 .21.56h.14ZM259.75 144.54a.4.4 0 0 0 .37-.19.41.41 0 0 0-.11-.58 4.2 4.2 0 0 0-3.84-.49.41.41 0 0 0-.22.56.42.42 0 0 0 .55.22 3.31 3.31 0 0 1 3 .42.6.6 0 0 0 .25.06Z" style="fill:#263238"/><path d="m300.86 199.28-5.86 3.33-6.09 13.1s5.88 3.74 10.52.71 1.43-17.14 1.43-17.14Z" style="fill:#3e7bfa"/><path d="m300.86 199.28-5.86 3.33-6.09 13.1s5.88 3.74 10.52.71 1.43-17.14 1.43-17.14Z" style="fill:#fff;opacity:.5;isolation:isolate"/><path d="m198.39 203.33 6.93 2 6.57 13.59s-5.28 4.89-11 .22c-4.28-3.54-2.5-15.81-2.5-15.81Z" style="fill:#3e7bfa"/><g style="opacity:.5;isolation:isolate"><path d="m198.39 203.33 6.93 2 6.57 13.59s-5.28 4.89-11 .22c-4.28-3.54-2.5-15.81-2.5-15.81Z" style="fill:#fff"/></g><path d="M259.35 147.93c.48-.09 1 .45 1.11 1.19s-.16 1.42-.64 1.5-1-.45-1.11-1.19.16-1.43.64-1.5Z" style="fill:#263238"/><path d="m260.83 147.2-1.69.83c1.02.72 1.69-.83 1.69-.83ZM251 149.65c.48-.09 1 .45 1.11 1.19s-.16 1.42-.64 1.5-1-.45-1.11-1.19.14-1.41.64-1.5Z" style="fill:#263238"/><path d="m252.46 148.92-1.69.83c1.02.72 1.69-.83 1.69-.83ZM208.66 187.91a7.31 7.31 0 0 1-2.75-.52c-3.1-1.27-4.54-4.49-4-8.85a.5.5 0 0 1 .56-.43.49.49 0 0 1 .43.56c-.52 3.87.7 6.71 3.35 7.79a7.7 7.7 0 0 0 8.65-2.66c2.51-3.34 1.69-8.08-2.22-13-10.24-12.85-9.56-19.68-8.11-25.08 2.1-7.84 8.25-16.82 25.65-15.09a.5.5 0 1 1-.1 1c-16.69-1.66-22.59 6.9-24.59 14.36-1.44 5.4-2 11.71 7.93 24.2 6 7.53 3.57 12.46 2.24 14.22a9 9 0 0 1-7.04 3.5Z" style="fill:#263238"/></svg>